<svg width="40" height="40" viewBox="0 0 40 40" fill="none" xmlns="http://www.w3.org/2000/svg">
  <rect width="40" height="40" rx="20" fill="#E8F5F0"/>
  <path d="M20 8C13.3726 8 8 13.3726 8 20C8 26.6274 13.3726 32 20 32C26.6274 32 32 26.6274 32 20C32 13.3726 26.6274 8 20 8ZM15 18C15.5523 18 16 18.4477 16 19C16 19.5523 15.5523 20 15 20C14.4477 20 14 19.5523 14 19C14 18.4477 14.4477 18 15 18ZM25 18C25.5523 18 26 18.4477 26 19C26 19.5523 25.5523 20 25 20C24.4477 20 24 19.5523 24 19C24 18.4477 24.4477 18 25 18ZM20 26C17.2386 26 15 23.7614 15 21H25C25 23.7614 22.7614 26 20 26Z" fill="#00875A"/>
</svg>